# xmcd CD database file
#
# Track frame offsets:
#	150
#	17927
#	35447
#	62870
#	82397
#	99235
#	120645
#	129422
#	155025
#
# Disc length: 2277 seconds
#
# Revision: 1
# Processed by: cddbd v1.5.1PL0 Copyright (c) Steve Scherf et al.
# Submitted via: CDex 1.51
#
DISCID=7808e309
DTITLE=Bud Powell - Bud Powell In Paris
DYEAR=1963
DGENRE=Jazz
TTITLE0=How High The Moon
TTITLE1=Dear Old Stockholm
TTITLE2=Body And Soul
TTITLE3=Jor-du
TTITLE4=Reets And I
TTITLE5=Satin Doll
TTITLE6=Parisian Thoroughfare
TTITLE7=I Can't Get Started With You
TTITLE8=Little Bennie
EXTD=YEAR: 1963
EXTT0=
EXTT1=
EXTT2=
EXTT3=
EXTT4=
EXTT5=
EXTT6=
EXTT7=
EXTT8=
PLAYORDER=
